<svg id="icon-true-w" xmlns="http://www.w3.org/2000/svg" width="23.155" height="23.155" viewBox="0 0 23.155 23.155">
  <path id="Trazado_1220" data-name="Trazado 1220" d="M11.578,21.708a10.13,10.13,0,1,1,10.13-10.13,10.13,10.13,0,0,1-10.13,10.13Zm0,1.447A11.578,11.578,0,1,0,0,11.578,11.578,11.578,0,0,0,11.578,23.155Z" fill="#fff"/>
  <path id="Trazado_1221" data-name="Trazado 1221" d="M14.032,5.071A.34.34,0,0,0,14,5.1l-5.026,6.4L5.948,8.476A1.085,1.085,0,0,0,4.414,10.01l3.829,3.831A1.085,1.085,0,0,0,9.8,13.812L15.582,6.59a1.085,1.085,0,1,0-1.55-1.52Z" transform="translate(1.844 2.122)" fill="#fff"/>
</svg>
