<svg id="icon-true-b" xmlns="http://www.w3.org/2000/svg" width="26.203" height="26.203" viewBox="0 0 26.203 26.203">
  <path id="Trazado_1220" data-name="Trazado 1220" d="M13.1,24.566A11.464,11.464,0,1,1,24.566,13.1,11.464,11.464,0,0,1,13.1,24.566Zm0,1.638A13.1,13.1,0,1,0,0,13.1,13.1,13.1,0,0,0,13.1,26.2Z"/>
  <path id="Trazado_1221" data-name="Trazado 1221" d="M15.337,5.113a.385.385,0,0,0-.033.036L9.616,12.4,6.188,8.967A1.228,1.228,0,0,0,4.452,10.7l4.333,4.335a1.228,1.228,0,0,0,1.767-.033l6.538-8.172a1.228,1.228,0,1,0-1.754-1.72Z" transform="translate(2.629 3.026)"/>
</svg>
